<svg width="18" height="16" viewBox="0 0 18 16" fill="none" xmlns="http://www.w3.org/2000/svg">
<path d="M1.41417 8.82362C2.18817 5.09555 5.42378 2.44663 9.06341 2.44663C12.7019 2.44663 15.9375 5.09555 16.7127 8.82362C16.7434 8.97156 16.8314 9.1012 16.9574 9.18403C17.0834 9.26686 17.237 9.29609 17.3845 9.2653C17.532 9.2345 17.6613 9.1462 17.7438 9.01982C17.8264 8.89344 17.8556 8.73934 17.8249 8.5914C16.943 4.35108 13.2546 1.30829 9.06341 1.30829C4.87222 1.30829 1.18378 4.35108 0.301962 8.5914C0.271261 8.73934 0.300406 8.89344 0.382986 9.01982C0.465566 9.1462 0.594817 9.2345 0.742304 9.2653C0.889792 9.29609 1.04343 9.26686 1.16943 9.18403C1.29543 9.1012 1.38347 8.97156 1.41417 8.82362ZM9.05206 4.72331C10.1055 4.72331 11.1159 5.14308 11.8608 5.89026C12.6057 6.63744 13.0242 7.65084 13.0242 8.70751C13.0242 9.76419 12.6057 10.7776 11.8608 11.5248C11.1159 12.2719 10.1055 12.6917 9.05206 12.6917C7.99858 12.6917 6.98825 12.2719 6.24332 11.5248C5.4984 10.7776 5.0799 9.76419 5.0799 8.70751C5.0799 7.65084 5.4984 6.63744 6.24332 5.89026C6.98825 5.14308 7.99858 4.72331 9.05206 4.72331Z" fill="#6A707C"/>
<rect x="-0.00146453" y="0.35355" width="19.0342" height="1.47924" rx="0.73962" transform="matrix(0.71003 -0.704172 -0.704172 -0.71003 3.55933 15.3501)" fill="#6A707C" stroke="#F7F8F9" stroke-width="0.5"/>
</svg>
