<svg width="189" height="214" viewBox="0 0 189 214" fill="none" xmlns="http://www.w3.org/2000/svg">
<path fill-rule="evenodd" clip-rule="evenodd" d="M157.876 33.831C159.36 30.0616 159.801 26.299 160.446 22.3603C160.572 21.5911 160.049 20.8676 159.28 20.7408C158.511 20.614 157.784 21.137 157.658 21.9062C157.046 25.641 156.656 29.2208 155.247 32.8014C154.962 33.5256 155.32 34.3455 156.046 34.6275C156.771 34.9141 157.592 34.5553 157.876 33.831Z" fill="#303030"/>
<path fill-rule="evenodd" clip-rule="evenodd" d="M165.033 42.4808C172.354 37.4099 179.525 30.586 184.856 23.4395C185.322 22.8152 185.192 21.9312 184.566 21.4685C183.94 21.0058 183.055 21.1334 182.59 21.7577C177.435 28.6673 170.499 35.2672 163.421 40.1669C162.781 40.6115 162.623 41.49 163.068 42.1274C163.513 42.7648 164.393 42.9254 165.033 42.4808Z" fill="#303030"/>
<path fill-rule="evenodd" clip-rule="evenodd" d="M165.815 49.1966C171.65 50.9779 178.024 50.1274 183.767 48.4867C184.517 48.2699 184.95 47.4898 184.735 46.7459C184.52 45.9973 183.736 45.5655 182.987 45.7777C177.757 47.274 171.955 48.1253 166.64 46.5038C165.895 46.276 165.104 46.6958 164.877 47.4372C164.65 48.1786 165.07 48.9689 165.815 49.1966Z" fill="#303030"/>
<path d="M26.859 139.009C27.2444 139.239 27.3686 139.738 27.1358 140.122C26.9042 140.503 26.4022 140.628 26.0177 140.395L26.859 139.009ZM26.859 139.009L27.1153 138.58C27.7391 138.952 27.9399 139.76 27.5634 140.381L27.5631 140.382C27.1885 140.998 26.3799 141.199 25.759 140.823M26.859 139.009L27.1171 138.581C23.9693 136.683 21.8298 134.036 20.6996 130.543L20.6995 130.543C20.4767 129.856 19.7373 129.475 19.047 129.696C18.3555 129.915 17.9742 130.654 18.1977 131.344L25.759 140.823M25.759 140.823C22.0622 138.594 19.5298 135.457 18.1977 131.344L25.759 140.823Z" fill="#303030" stroke="#010623"/>
<path d="M18.4732 176.233L18.4729 176.233C17.8195 176.96 16.9198 177.035 16.0874 176.734C15.3303 176.462 14.5845 175.83 14.2578 175.512C13.6129 174.884 13.0277 174.201 12.5022 173.479C6.72551 174.829 3.11645 180.167 4.11993 186.002L4.12005 186.003C4.24241 186.721 3.75836 187.393 3.04599 187.516L3.04276 187.516L3.04276 187.516C2.33184 187.634 1.65086 187.159 1.52841 186.442C0.334022 179.496 4.42577 173.104 11.0782 171.143C10.7811 170.556 10.5172 169.952 10.2862 169.338L10.2861 169.338C7.40255 161.66 11.4529 152.675 20.0681 147.346L20.0683 147.346C21.4768 146.475 23.3129 146.001 25.3658 145.807C27.4242 145.612 29.7365 145.695 32.1258 145.965C36.4718 146.457 41.1214 147.544 44.9442 148.581C43.5791 147.494 42.2658 146.349 40.9687 145.165L40.9687 145.165C40.3973 144.643 39.8222 144.121 39.2454 143.597C32.3714 137.352 25.2436 130.877 20.9558 122.408L20.9549 122.406C20.6304 121.759 20.888 120.969 21.5392 120.646C22.1886 120.321 22.9765 120.587 23.3023 121.229L23.3024 121.23C27.386 129.293 34.1852 135.464 40.9017 141.56C41.5168 142.118 42.1311 142.676 42.7427 143.234L42.7427 143.234C45.0188 145.312 47.3231 147.244 49.8722 148.94L49.8731 148.941C49.9714 149.006 50.0693 149.072 50.1668 149.137C50.8325 149.584 51.4837 150.02 52.1596 150.423C52.1618 150.424 52.1649 150.425 52.1692 150.427C52.1867 150.432 52.2126 150.439 52.2514 150.446C52.2825 150.453 52.3139 150.458 52.3516 150.465C52.3621 150.467 52.3731 150.469 52.3846 150.471C52.4341 150.48 52.4926 150.491 52.5518 150.505L52.5568 150.506C52.8373 150.574 53.1425 150.666 53.3743 150.797L53.3775 150.799C53.8013 151.042 54.0522 151.402 54.1441 151.801L54.1448 151.803C54.2101 152.095 54.1984 152.432 54.0302 152.791L54.0279 152.796C53.9047 153.052 53.6311 153.45 53.014 153.536C52.9317 153.548 52.844 153.542 52.7875 153.537C52.7149 153.531 52.6279 153.52 52.5284 153.503C52.329 153.469 52.0668 153.411 51.7507 153.318L51.7496 153.317C51.4304 153.223 51.0139 153.094 50.5139 152.94C47.1842 151.914 40.1519 149.747 33.5027 148.786L33.5026 148.786C31.0473 148.431 28.6644 148.23 26.5698 148.322C24.4664 148.415 22.7067 148.8 21.4573 149.573C13.8371 154.287 10.3301 161.981 12.748 168.423C13.0467 169.219 13.4099 169.988 13.8359 170.722C14.4025 170.767 15.0838 170.887 15.7574 171.076C16.5402 171.296 17.3524 171.62 17.9714 172.06L17.9715 172.06C18.6203 172.522 19.0954 173.13 19.2423 173.842L18.4732 176.233ZM18.4732 176.233C19.2054 175.418 19.3975 174.591 19.2423 173.842L18.4732 176.233Z" fill="#303030" stroke="#010623"/>
<path d="M80.1606 36.3081C79.7952 34.7946 77.6423 34.7946 77.277 36.3081L76.8037 38.2686C76.6731 38.8095 76.2508 39.2318 75.71 39.3624L73.7494 39.8357C72.2359 40.201 72.2359 42.3539 73.7494 42.7193L75.71 43.1925C76.2508 43.3231 76.6731 43.7454 76.8037 44.2863L77.277 46.2468C77.6423 47.7603 79.7952 47.7603 80.1606 46.2468L80.6338 44.2863C80.7644 43.7454 81.1867 43.3231 81.7276 43.1925L83.6881 42.7193C85.2016 42.3539 85.2016 40.201 83.6881 39.8357L81.7276 39.3624C81.1867 39.2318 80.7644 38.8095 80.6338 38.2686L80.1606 36.3081Z" fill="#E10011"/>
<circle cx="143.313" cy="140.462" r="4.23565" fill="#E10011"/>
<path d="M62.2245 85.2869C63.2951 77.2688 66.3726 69.6533 71.1699 63.1509C75.9673 56.6484 82.3282 51.471 89.6592 48.1015C96.9903 44.7319 105.053 43.2801 113.094 43.8815C121.136 44.4829 128.894 47.1178 135.646 51.5405L154.042 45.2665C154.597 45.0831 155.193 45.0629 155.759 45.2083C156.325 45.3538 156.838 45.6588 157.236 46.0873C157.635 46.5159 157.903 47.05 158.009 47.6265C158.114 48.203 158.053 48.7978 157.833 49.3406L150.455 66.9946C154.379 73.5521 156.68 80.9571 157.165 88.5898C157.65 96.2225 156.306 103.861 153.245 110.865C150.184 117.87 145.495 124.037 139.57 128.85C133.646 133.664 126.658 136.983 119.192 138.531C111.726 140.079 103.999 139.81 96.658 137.747C89.3169 135.684 82.5752 131.887 76.9972 126.673C71.4192 121.46 67.1671 114.982 64.5969 107.781C62.0268 100.581 61.2133 92.8676 62.2245 85.2869Z" fill="#E10011" fill-opacity="0.3"/>
<path d="M30.7841 106.69C31.8547 114.708 34.9322 122.324 39.7295 128.826C44.5269 135.328 50.8878 140.506 58.2188 143.875C65.5498 147.245 73.6122 148.697 81.6537 148.095C89.6952 147.494 97.4538 144.859 104.206 140.436L122.602 146.71C123.157 146.894 123.753 146.914 124.319 146.769C124.885 146.623 125.397 146.318 125.796 145.89C126.195 145.461 126.463 144.927 126.568 144.35C126.674 143.774 126.613 143.179 126.392 142.636L119.015 124.982C122.938 118.425 125.239 111.02 125.725 103.387C126.21 95.7544 124.866 88.1161 121.805 81.1115C118.744 74.1069 114.054 67.9399 108.13 63.1266C102.205 58.3134 95.2174 54.9939 87.7515 53.446C80.2856 51.8981 72.5587 52.167 65.2176 54.2299C57.8765 56.2929 51.1348 60.09 45.5568 65.3035C39.9787 70.5169 35.7267 76.995 33.1565 84.1955C30.5863 91.396 29.7728 99.1093 30.7841 106.69Z" fill="#E10011"/>
<path fill-rule="evenodd" clip-rule="evenodd" d="M69.4492 114.37C69.4492 108.293 73.9034 103.848 78.8293 103.848C83.7553 103.848 88.2094 108.293 88.2094 114.37H94.5629C94.5629 105.316 87.7733 97.4944 78.8293 97.4944C69.8854 97.4944 63.0957 105.316 63.0957 114.37H69.4492Z" fill="white"/>
<path d="M61.7062 97.2466C64.8585 97.2466 67.4139 94.6912 67.4139 91.539C67.4139 88.3867 64.8585 85.8313 61.7062 85.8313C58.5539 85.8313 55.9985 88.3867 55.9985 91.539C55.9985 94.6912 58.5539 97.2466 61.7062 97.2466Z" fill="white"/>
<path d="M95.9523 97.2466C99.1046 97.2466 101.66 94.6912 101.66 91.539C101.66 88.3867 99.1046 85.8313 95.9523 85.8313C92.8 85.8313 90.2446 88.3867 90.2446 91.539C90.2446 94.6912 92.8 97.2466 95.9523 97.2466Z" fill="white"/>
</svg>
